<?xml version="1.0" standalone="no"?><!DOCTYPE svg PUBLIC "-//W3C//DTD SVG 1.1//EN" "http://www.w3.org/Graphics/SVG/1.1/DTD/svg11.dtd">
<svg t="1492146130416" class="icon" style="" viewBox="0 0 1366 1024" version="1.1" xmlns="http://www.w3.org/2000/svg"
     p-id="4568"
     width="266.796875" height="200"><defs><style type="text/css"></style></defs><path d="M1263.914667 11.818667C1249.493333 4.864 1230.421333 0 1204.693333 0L160.64 0C134.954667 0 115.84 4.864 101.418667 11.818667 42.154667 35.925333 0 94.72 0 163.541333l0 654.250667c0 68.394667 41.557333 126.933333 100.181333 151.296C114.474667 976.256 133.802667 981.333333 160.64 981.333333l1044.096 0c26.794667 0 46.122667-5.077333 60.458667-12.245333C1323.818667 944.725333 1365.333333 886.186667 1365.333333 817.792L1365.333333 163.541333C1365.333333 94.72 1323.178667 35.925333 1263.914667 11.818667zM160.64 81.792l1044.096 0c7.381333 0 14.378667 1.322667 21.162667 3.242667-1.962667 3.968-5.632 9.770667-12.501333 17.109333L736 618.624c-28.586667 30.976-78.08 30.976-106.666667 0L151.978667 102.186667C145.109333 94.805333 141.44 89.002667 139.477333 85.034667 146.218667 83.114667 153.258667 81.792 160.64 81.792zM86.101333 847.744c-3.626667-9.301333-5.76-19.370667-5.76-29.952L80.341333 163.541333c0-6.4 0.896-12.629333 2.304-18.602667C85.973333 149.333333 89.258667 153.728 93.482667 158.250667l344.874667 373.077333-333.994667 297.6C97.109333 835.370667 91.264 841.642667 86.101333 847.744zM1204.693333 899.541333 160.64 899.541333c-3.925333 0-7.68-0.597333-11.477333-1.152 2.176-2.346667 4.736-4.949333 8.106667-7.978667l336.170667-299.52 77.397333 83.797333c29.610667 32.042667 69.333333 49.706667 111.829333 49.706667 42.496 0 82.176-17.664 111.829333-49.706667l77.397333-83.797333 336.170667 299.52c3.328 2.986667 5.930667 5.632 8.064 7.978667C1212.416 898.944 1208.618667 899.541333 1204.693333 899.541333zM1284.992 817.792c0 10.581333-2.133333 20.650667-5.76 29.952-5.162667-6.144-11.050667-12.373333-18.304-18.816l-333.952-297.6 344.832-373.077333c4.266667-4.522667 7.552-8.917333 10.922667-13.312 1.365333 5.973333 2.261333 12.16 2.261333 18.602667L1284.992 817.792z" p-id="4569" fill="#2b93c1"></path></svg>